<?xml version="1.0" standalone="no"?>
<!DOCTYPE svg PUBLIC "-//W3C//DTD SVG 20010904//EN"
 "http://www.w3.org/TR/2001/REC-SVG-20010904/DTD/svg10.dtd">
<svg version="1.0" xmlns="http://www.w3.org/2000/svg"
 width="677.000000pt" height="369.000000pt" viewBox="0 0 677.000000 369.000000"
 preserveAspectRatio="xMidYMid meet">

<g transform="translate(0.000000,369.000000) scale(0.100000,-0.100000)"
fill="#000000" stroke="none">
<path d="M1254 2878 c-86 -5 -135 -15 -215 -41 -281 -91 -460 -269 -575 -572
-83 -221 -86 -575 -5 -808 111 -320 327 -524 641 -603 90 -23 126 -27 260 -27
167 -1 253 15 385 70 157 65 293 192 374 348 43 82 89 229 97 309 l7 66 -211
0 -211 0 -6 -37 c-18 -112 -88 -248 -154 -301 -87 -69 -157 -92 -281 -92 -186
0 -318 68 -416 214 -86 127 -119 279 -112 503 5 126 9 160 32 228 53 156 126
259 227 321 243 147 552 67 659 -171 15 -33 30 -72 34 -87 l6 -28 211 0 211 0
-7 43 c-21 136 -87 284 -168 382 -180 214 -431 305 -783 283z"/>
<path d="M2490 1855 l0 -995 218 2 217 3 3 363 2 362 241 0 c272 0 391 16 506
70 219 101 333 295 333 564 0 273 -125 472 -358 570 -114 48 -212 56 -709 56
l-453 0 0 -995z m931 641 c63 -23 122 -75 150 -133 19 -40 23 -64 23 -138 -1
-103 -14 -143 -70 -205 -64 -71 -114 -82 -371 -88 l-223 -4 0 289 c0 159 3
293 8 297 4 5 104 6 222 3 169 -3 225 -8 261 -21z"/>
<path d="M4250 1855 l0 -995 200 0 200 0 0 702 c0 472 3 699 10 692 6 -6 35
-84 66 -175 123 -360 377 -1107 393 -1159 l18 -55 173 0 173 0 37 110 c21 61
65 191 99 290 34 99 96 281 137 405 42 124 79 234 84 245 4 11 25 70 45 130
20 61 46 137 58 170 l22 60 5 -705 5 -705 200 0 200 0 3 993 2 992 -296 -2
-297 -3 -44 -130 c-24 -71 -93 -281 -154 -465 -61 -184 -115 -344 -120 -355
-5 -11 -36 -103 -69 -205 -33 -102 -63 -192 -66 -200 -8 -22 -23 16 -99 250
-37 113 -70 214 -74 225 -5 11 -65 191 -136 400 -70 209 -136 404 -147 433
l-19 52 -305 0 -304 0 0 -995z"/>
</g>
</svg>
